<?xml version="1.0" encoding="UTF-8"?>
<svg version="1.1" xmlns="http://www.w3.org/2000/svg" width="225" height="225">
<path d="M0 0 C74.25 0 148.5 0 225 0 C225 74.25 225 148.5 225 225 C150.75 225 76.5 225 0 225 C0 150.75 0 76.5 0 0 Z " fill="#FEFEFE" transform="translate(0,0)"/>
<path d="M0 0 C1.32 0.33 2.64 0.66 4 1 C4.33 27.4 4.66 53.8 5 81 C8.465 77.535 8.465 77.535 12 74 C14.9140625 72.00390625 14.9140625 72.00390625 17.625 70.5625 C18.97464844 69.82193359 18.97464844 69.82193359 20.3515625 69.06640625 C23.12542021 67.94949894 25.04170376 67.78106472 28 68 C28 69.32 28 70.64 28 72 C27.38253906 72.1959375 26.76507813 72.391875 26.12890625 72.59375 C17.11458046 75.77689092 10.47067562 80.59201765 6 89.1875 C4.48989193 92.43318367 3.60158535 95.47195256 3 99 C2.01 99 1.02 99 0 99 C-0.22042969 98.05640625 -0.22042969 98.05640625 -0.4453125 97.09375 C-3.05679246 87.12810232 -8.10639877 80.3064052 -17 75 C-19.64598331 73.80343758 -22.2278456 72.89104963 -25 72 C-25 70.68 -25 69.36 -25 68 C-16.89914034 68.35221129 -10.45645563 72.42005005 -4.84204102 78.11645508 C-4.04093651 78.92654778 -4.04093651 78.92654778 -3.22364807 79.75300598 C-2.81984421 80.16451401 -2.41604034 80.57602203 -2 81 C-1.98969254 79.99997452 -1.97938507 78.99994904 -1.96876526 77.96961975 C-1.87120196 68.56625227 -1.76848454 59.1629535 -1.66066074 49.75969791 C-1.60538873 44.92486463 -1.55196203 40.09002535 -1.50268555 35.25512695 C-1.45510493 30.59317516 -1.40276467 25.93129933 -1.34705925 21.26943779 C-1.32660704 19.48677895 -1.3078988 17.70409925 -1.29092598 15.92140388 C-1.26694514 13.43328399 -1.2368824 10.94530902 -1.20532227 8.45727539 C-1.1995668 7.71281158 -1.19381134 6.96834778 -1.18788147 6.20132446 C-1.11405216 1.11405216 -1.11405216 1.11405216 0 0 Z " fill="#4C4C4C" transform="translate(111,63)"/>
<path d="M0 0 C0 1.32 0 2.64 0 4 C-3.63 5.32 -7.26 6.64 -11 8 C-11 5 -11 5 -9.125 2.875 C-5.93059245 0.0564051 -4.17935861 -0.10998312 0 0 Z " fill="#3F3F3F" transform="translate(139,131)"/>
<path d="M0 0 C1.65 0 3.3 0 5 0 C5 1.32 5 2.64 5 4 C3.02 4.33 1.04 4.66 -1 5 C-0.67 3.35 -0.34 1.7 0 0 Z " fill="#505050" transform="translate(134,131)"/>
</svg>
